<mxfile host="app.diagrams.net" agent="Mozilla/5.0 (Windows NT 10.0; Win64; x64) AppleWebKit/537.36 (KHTML, like Gecko) Chrome/122.0.0.0 Safari/537.36" version="24.7.10">
  <diagram name="Página-1" id="tnlhSZbEQsULOHrmDjdg">
    <mxGraphModel dx="1167" dy="657" grid="1" gridSize="10" guides="1" tooltips="1" connect="1" arrows="1" fold="1" page="1" pageScale="1" pageWidth="827" pageHeight="1169" math="0" shadow="0">
      <root>
        <mxCell id="0" />
        <mxCell id="1" parent="0" />
        <mxCell id="VSAAFDuZtq6SLOjFouVE-43" value="Denuncia" style="swimlane;fontStyle=0;align=center;verticalAlign=top;childLayout=stackLayout;horizontal=1;startSize=30;horizontalStack=0;resizeParent=1;resizeLast=0;collapsible=1;marginBottom=0;rounded=0;shadow=0;strokeWidth=1;" vertex="1" parent="1">
          <mxGeometry x="640" y="290" width="160" height="290" as="geometry">
            <mxRectangle x="340" y="380" width="170" height="26" as="alternateBounds" />
          </mxGeometry>
        </mxCell>
        <mxCell id="VSAAFDuZtq6SLOjFouVE-44" value="+ titulo: string&#xa;+ descricao: string&#xa;+ categoria: string&#xa;+ data: DateTime&#xa;+ cep: string&#xa;+ endereco: string&#xa;+ numero_endereco: string&#xa;+ ponto_referencia: string&#xa;+ latitude: string&#xa;+ longitude: string&#xa;+ fotos: string&#xa;+ quantCurtidas: int" style="text;align=left;verticalAlign=top;spacingLeft=4;spacingRight=4;overflow=hidden;rotatable=0;points=[[0,0.5],[1,0.5]];portConstraint=eastwest;" vertex="1" parent="VSAAFDuZtq6SLOjFouVE-43">
          <mxGeometry y="30" width="160" height="180" as="geometry" />
        </mxCell>
        <mxCell id="VSAAFDuZtq6SLOjFouVE-45" value="" style="line;html=1;strokeWidth=1;align=left;verticalAlign=middle;spacingTop=-1;spacingLeft=3;spacingRight=3;rotatable=0;labelPosition=right;points=[];portConstraint=eastwest;" vertex="1" parent="VSAAFDuZtq6SLOjFouVE-43">
          <mxGeometry y="210" width="160" height="8" as="geometry" />
        </mxCell>
        <mxCell id="VSAAFDuZtq6SLOjFouVE-46" value="+ criar(): &#xa;+ deletar(): &#xa;+ alterar():&#xa;+ buscar():&#xa; " style="text;align=left;verticalAlign=top;spacingLeft=4;spacingRight=4;overflow=hidden;rotatable=0;points=[[0,0.5],[1,0.5]];portConstraint=eastwest;" vertex="1" parent="VSAAFDuZtq6SLOjFouVE-43">
          <mxGeometry y="218" width="160" height="72" as="geometry" />
        </mxCell>
        <mxCell id="VSAAFDuZtq6SLOjFouVE-47" style="edgeStyle=orthogonalEdgeStyle;rounded=0;orthogonalLoop=1;jettySize=auto;html=1;exitX=0.5;exitY=1;exitDx=0;exitDy=0;entryX=0.5;entryY=0;entryDx=0;entryDy=0;dashed=1;" edge="1" parent="1" source="VSAAFDuZtq6SLOjFouVE-48" target="VSAAFDuZtq6SLOjFouVE-52">
          <mxGeometry relative="1" as="geometry" />
        </mxCell>
        <mxCell id="VSAAFDuZtq6SLOjFouVE-48" value="Usuario" style="swimlane;fontStyle=0;align=center;verticalAlign=top;childLayout=stackLayout;horizontal=1;startSize=26;horizontalStack=0;resizeParent=1;resizeLast=0;collapsible=1;marginBottom=0;rounded=0;shadow=0;strokeWidth=1;" vertex="1" parent="1">
          <mxGeometry x="80" y="275" width="190" height="320" as="geometry">
            <mxRectangle x="340" y="380" width="170" height="26" as="alternateBounds" />
          </mxGeometry>
        </mxCell>
        <mxCell id="VSAAFDuZtq6SLOjFouVE-49" value="+ nome: string&#xa;+ foto:string&#xa;+ email: string&#xa;+ senha: string&#xa;+ telefone: string&#xa;+ sexo: string&#xa;+ endereco: string&#xa;+ cep: string&#xa;+ nascimento: date&#xa;+ pontuacao: int&#xa;+ Numero_Endereco: string &#xa;+ Complemento_endenco: string" style="text;align=left;verticalAlign=top;spacingLeft=4;spacingRight=4;overflow=hidden;rotatable=0;points=[[0,0.5],[1,0.5]];portConstraint=eastwest;" vertex="1" parent="VSAAFDuZtq6SLOjFouVE-48">
          <mxGeometry y="26" width="190" height="184" as="geometry" />
        </mxCell>
        <mxCell id="VSAAFDuZtq6SLOjFouVE-50" value="" style="line;html=1;strokeWidth=1;align=left;verticalAlign=middle;spacingTop=-1;spacingLeft=3;spacingRight=3;rotatable=0;labelPosition=right;points=[];portConstraint=eastwest;" vertex="1" parent="VSAAFDuZtq6SLOjFouVE-48">
          <mxGeometry y="210" width="190" height="8" as="geometry" />
        </mxCell>
        <mxCell id="VSAAFDuZtq6SLOjFouVE-51" value="+ criar(): &#xa;+ gravar():&#xa;+ deletar(): &#xa;+ validarSenha():&#xa;+ atualizarPontos():&#xa;+ editar():" style="text;align=left;verticalAlign=top;spacingLeft=4;spacingRight=4;overflow=hidden;rotatable=0;points=[[0,0.5],[1,0.5]];portConstraint=eastwest;" vertex="1" parent="VSAAFDuZtq6SLOjFouVE-48">
          <mxGeometry y="218" width="190" height="92" as="geometry" />
        </mxCell>
        <mxCell id="VSAAFDuZtq6SLOjFouVE-52" value="«DAO»&#xa;UsuarioDAO&#xa;" style="swimlane;fontStyle=0;align=center;verticalAlign=top;childLayout=stackLayout;horizontal=1;startSize=35;horizontalStack=0;resizeParent=1;resizeLast=0;collapsible=1;marginBottom=0;rounded=0;shadow=0;strokeWidth=1;" vertex="1" parent="1">
          <mxGeometry x="95" y="650" width="160" height="70" as="geometry">
            <mxRectangle x="340" y="380" width="170" height="26" as="alternateBounds" />
          </mxGeometry>
        </mxCell>
        <mxCell id="VSAAFDuZtq6SLOjFouVE-53" value="" style="line;html=1;strokeWidth=1;align=left;verticalAlign=middle;spacingTop=-1;spacingLeft=3;spacingRight=3;rotatable=0;labelPosition=right;points=[];portConstraint=eastwest;" vertex="1" parent="VSAAFDuZtq6SLOjFouVE-52">
          <mxGeometry y="35" width="160" height="8" as="geometry" />
        </mxCell>
        <mxCell id="VSAAFDuZtq6SLOjFouVE-54" value="+ atualizarPontos():" style="text;align=left;verticalAlign=top;spacingLeft=4;spacingRight=4;overflow=hidden;rotatable=0;points=[[0,0.5],[1,0.5]];portConstraint=eastwest;" vertex="1" parent="VSAAFDuZtq6SLOjFouVE-52">
          <mxGeometry y="43" width="160" height="27" as="geometry" />
        </mxCell>
        <mxCell id="VSAAFDuZtq6SLOjFouVE-55" style="edgeStyle=orthogonalEdgeStyle;rounded=0;orthogonalLoop=1;jettySize=auto;html=1;exitX=0.5;exitY=1;exitDx=0;exitDy=0;entryX=0.5;entryY=0;entryDx=0;entryDy=0;dashed=1;" edge="1" parent="1" source="VSAAFDuZtq6SLOjFouVE-43" target="VSAAFDuZtq6SLOjFouVE-66">
          <mxGeometry relative="1" as="geometry">
            <mxPoint x="720" y="595" as="targetPoint" />
          </mxGeometry>
        </mxCell>
        <mxCell id="VSAAFDuZtq6SLOjFouVE-56" style="edgeStyle=orthogonalEdgeStyle;rounded=0;orthogonalLoop=1;jettySize=auto;html=1;entryX=0.5;entryY=0;entryDx=0;entryDy=0;dashed=1;exitX=1;exitY=0.5;exitDx=0;exitDy=0;" edge="1" parent="1" source="VSAAFDuZtq6SLOjFouVE-58" target="VSAAFDuZtq6SLOjFouVE-60">
          <mxGeometry relative="1" as="geometry">
            <mxPoint x="590" y="85" as="targetPoint" />
          </mxGeometry>
        </mxCell>
        <mxCell id="VSAAFDuZtq6SLOjFouVE-57" style="edgeStyle=orthogonalEdgeStyle;rounded=0;orthogonalLoop=1;jettySize=auto;html=1;entryX=0.5;entryY=0;entryDx=0;entryDy=0;dashed=1;exitX=0;exitY=0.5;exitDx=0;exitDy=0;" edge="1" parent="1" source="VSAAFDuZtq6SLOjFouVE-58" target="VSAAFDuZtq6SLOjFouVE-70">
          <mxGeometry relative="1" as="geometry" />
        </mxCell>
        <mxCell id="VSAAFDuZtq6SLOjFouVE-58" value="«View»&lt;br&gt;&lt;b&gt;TelaCriarDenúncia&lt;br&gt;&lt;/b&gt;" style="html=1;whiteSpace=wrap;" vertex="1" parent="1">
          <mxGeometry x="505" y="10" width="135" height="50" as="geometry" />
        </mxCell>
        <mxCell id="VSAAFDuZtq6SLOjFouVE-59" style="edgeStyle=orthogonalEdgeStyle;rounded=0;orthogonalLoop=1;jettySize=auto;html=1;exitX=0.5;exitY=1;exitDx=0;exitDy=0;entryX=0.5;entryY=0;entryDx=0;entryDy=0;dashed=1;" edge="1" parent="1" source="VSAAFDuZtq6SLOjFouVE-60" target="VSAAFDuZtq6SLOjFouVE-43">
          <mxGeometry relative="1" as="geometry">
            <mxPoint x="562.5" y="110" as="sourcePoint" />
          </mxGeometry>
        </mxCell>
        <mxCell id="VSAAFDuZtq6SLOjFouVE-60" value="«Control»&#xa;DenunciaCtr" style="swimlane;fontStyle=0;align=center;verticalAlign=top;childLayout=stackLayout;horizontal=1;startSize=40;horizontalStack=0;resizeParent=1;resizeLast=0;collapsible=1;marginBottom=0;rounded=0;shadow=0;strokeWidth=1;" vertex="1" parent="1">
          <mxGeometry x="640" y="120" width="160" height="90" as="geometry">
            <mxRectangle x="340" y="380" width="170" height="26" as="alternateBounds" />
          </mxGeometry>
        </mxCell>
        <mxCell id="VSAAFDuZtq6SLOjFouVE-61" value="" style="line;html=1;strokeWidth=1;align=left;verticalAlign=middle;spacingTop=-1;spacingLeft=3;spacingRight=3;rotatable=0;labelPosition=right;points=[];portConstraint=eastwest;" vertex="1" parent="VSAAFDuZtq6SLOjFouVE-60">
          <mxGeometry y="40" width="160" height="10" as="geometry" />
        </mxCell>
        <mxCell id="VSAAFDuZtq6SLOjFouVE-62" value="+ criar():&#xa;+ buscar():" style="text;align=left;verticalAlign=top;spacingLeft=4;spacingRight=4;overflow=hidden;rotatable=0;points=[[0,0.5],[1,0.5]];portConstraint=eastwest;" vertex="1" parent="VSAAFDuZtq6SLOjFouVE-60">
          <mxGeometry y="50" width="160" height="36" as="geometry" />
        </mxCell>
        <mxCell id="VSAAFDuZtq6SLOjFouVE-63" value="1" style="text;html=1;align=center;verticalAlign=middle;whiteSpace=wrap;rounded=0;" vertex="1" parent="1">
          <mxGeometry x="260" y="290" width="60" height="30" as="geometry" />
        </mxCell>
        <mxCell id="VSAAFDuZtq6SLOjFouVE-64" value="0..n" style="text;html=1;align=center;verticalAlign=middle;whiteSpace=wrap;rounded=0;" vertex="1" parent="1">
          <mxGeometry x="580" y="290" width="60" height="30" as="geometry" />
        </mxCell>
        <mxCell id="VSAAFDuZtq6SLOjFouVE-65" value="" style="endArrow=block;endFill=1;html=1;edgeStyle=orthogonalEdgeStyle;align=left;verticalAlign=top;rounded=0;exitX=0.998;exitY=0.125;exitDx=0;exitDy=0;exitPerimeter=0;" edge="1" parent="1" source="VSAAFDuZtq6SLOjFouVE-49" target="VSAAFDuZtq6SLOjFouVE-43">
          <mxGeometry x="-1" relative="1" as="geometry">
            <mxPoint x="295" y="331" as="sourcePoint" />
            <mxPoint x="440" y="320" as="targetPoint" />
            <Array as="points">
              <mxPoint x="270" y="320" />
            </Array>
          </mxGeometry>
        </mxCell>
        <mxCell id="VSAAFDuZtq6SLOjFouVE-66" value="«DAO»&#xa;DenunciaDAO&#xa;" style="swimlane;fontStyle=0;align=center;verticalAlign=top;childLayout=stackLayout;horizontal=1;startSize=35;horizontalStack=0;resizeParent=1;resizeLast=0;collapsible=1;marginBottom=0;rounded=0;shadow=0;strokeWidth=1;" vertex="1" parent="1">
          <mxGeometry x="640" y="650" width="160" height="79" as="geometry">
            <mxRectangle x="340" y="380" width="170" height="26" as="alternateBounds" />
          </mxGeometry>
        </mxCell>
        <mxCell id="VSAAFDuZtq6SLOjFouVE-67" value="" style="line;html=1;strokeWidth=1;align=left;verticalAlign=middle;spacingTop=-1;spacingLeft=3;spacingRight=3;rotatable=0;labelPosition=right;points=[];portConstraint=eastwest;" vertex="1" parent="VSAAFDuZtq6SLOjFouVE-66">
          <mxGeometry y="35" width="160" height="8" as="geometry" />
        </mxCell>
        <mxCell id="VSAAFDuZtq6SLOjFouVE-68" value="+ criar():&#xa;+ buscar():" style="text;align=left;verticalAlign=top;spacingLeft=4;spacingRight=4;overflow=hidden;rotatable=0;points=[[0,0.5],[1,0.5]];portConstraint=eastwest;" vertex="1" parent="VSAAFDuZtq6SLOjFouVE-66">
          <mxGeometry y="43" width="160" height="36" as="geometry" />
        </mxCell>
        <mxCell id="VSAAFDuZtq6SLOjFouVE-69" style="edgeStyle=orthogonalEdgeStyle;rounded=0;orthogonalLoop=1;jettySize=auto;html=1;entryX=0.5;entryY=0;entryDx=0;entryDy=0;dashed=1;" edge="1" parent="1" source="VSAAFDuZtq6SLOjFouVE-70" target="VSAAFDuZtq6SLOjFouVE-76">
          <mxGeometry relative="1" as="geometry" />
        </mxCell>
        <mxCell id="VSAAFDuZtq6SLOjFouVE-70" value="«Control»&#xa;CurtidaCtr" style="swimlane;fontStyle=0;align=center;verticalAlign=top;childLayout=stackLayout;horizontal=1;startSize=40;horizontalStack=0;resizeParent=1;resizeLast=0;collapsible=1;marginBottom=0;rounded=0;shadow=0;strokeWidth=1;" vertex="1" parent="1">
          <mxGeometry x="385" y="120" width="160" height="80" as="geometry">
            <mxRectangle x="340" y="380" width="170" height="26" as="alternateBounds" />
          </mxGeometry>
        </mxCell>
        <mxCell id="VSAAFDuZtq6SLOjFouVE-71" value="" style="line;html=1;strokeWidth=1;align=left;verticalAlign=middle;spacingTop=-1;spacingLeft=3;spacingRight=3;rotatable=0;labelPosition=right;points=[];portConstraint=eastwest;" vertex="1" parent="VSAAFDuZtq6SLOjFouVE-70">
          <mxGeometry y="40" width="160" height="10" as="geometry" />
        </mxCell>
        <mxCell id="VSAAFDuZtq6SLOjFouVE-72" value="+ criar():" style="text;align=left;verticalAlign=top;spacingLeft=4;spacingRight=4;overflow=hidden;rotatable=0;points=[[0,0.5],[1,0.5]];portConstraint=eastwest;" vertex="1" parent="VSAAFDuZtq6SLOjFouVE-70">
          <mxGeometry y="50" width="160" height="30" as="geometry" />
        </mxCell>
        <mxCell id="VSAAFDuZtq6SLOjFouVE-73" style="edgeStyle=orthogonalEdgeStyle;rounded=0;orthogonalLoop=1;jettySize=auto;html=1;entryX=0.5;entryY=0;entryDx=0;entryDy=0;dashed=1;" edge="1" parent="1" source="VSAAFDuZtq6SLOjFouVE-76" target="VSAAFDuZtq6SLOjFouVE-80">
          <mxGeometry relative="1" as="geometry" />
        </mxCell>
        <mxCell id="VSAAFDuZtq6SLOjFouVE-74" style="edgeStyle=orthogonalEdgeStyle;rounded=0;orthogonalLoop=1;jettySize=auto;html=1;entryX=-0.007;entryY=0.956;entryDx=0;entryDy=0;entryPerimeter=0;" edge="1" parent="1" source="VSAAFDuZtq6SLOjFouVE-76">
          <mxGeometry relative="1" as="geometry">
            <mxPoint x="638.8800000000001" y="434.72" as="targetPoint" />
          </mxGeometry>
        </mxCell>
        <mxCell id="VSAAFDuZtq6SLOjFouVE-75" style="edgeStyle=orthogonalEdgeStyle;rounded=0;orthogonalLoop=1;jettySize=auto;html=1;" edge="1" parent="1" source="VSAAFDuZtq6SLOjFouVE-76" target="VSAAFDuZtq6SLOjFouVE-48">
          <mxGeometry relative="1" as="geometry" />
        </mxCell>
        <mxCell id="VSAAFDuZtq6SLOjFouVE-76" value="Curtida" style="swimlane;fontStyle=1;align=center;verticalAlign=top;childLayout=stackLayout;horizontal=1;startSize=26;horizontalStack=0;resizeParent=1;resizeParentMax=0;resizeLast=0;collapsible=1;marginBottom=0;whiteSpace=wrap;html=1;" vertex="1" parent="1">
          <mxGeometry x="400" y="385" width="130" height="100" as="geometry">
            <mxRectangle x="318.5" y="230" width="80" height="30" as="alternateBounds" />
          </mxGeometry>
        </mxCell>
        <mxCell id="VSAAFDuZtq6SLOjFouVE-77" value="+ status: bool" style="text;strokeColor=none;fillColor=none;align=left;verticalAlign=top;spacingLeft=4;spacingRight=4;overflow=hidden;rotatable=0;points=[[0,0.5],[1,0.5]];portConstraint=eastwest;whiteSpace=wrap;html=1;" vertex="1" parent="VSAAFDuZtq6SLOjFouVE-76">
          <mxGeometry y="26" width="130" height="24" as="geometry" />
        </mxCell>
        <mxCell id="VSAAFDuZtq6SLOjFouVE-78" value="" style="line;strokeWidth=1;fillColor=none;align=left;verticalAlign=middle;spacingTop=-1;spacingLeft=3;spacingRight=3;rotatable=0;labelPosition=right;points=[];portConstraint=eastwest;strokeColor=inherit;" vertex="1" parent="VSAAFDuZtq6SLOjFouVE-76">
          <mxGeometry y="50" width="130" height="10" as="geometry" />
        </mxCell>
        <mxCell id="VSAAFDuZtq6SLOjFouVE-79" value="+ criar():&#xa;+ alterarStatus(): " style="text;align=left;verticalAlign=top;spacingLeft=4;spacingRight=4;overflow=hidden;rotatable=0;points=[[0,0.5],[1,0.5]];portConstraint=eastwest;" vertex="1" parent="VSAAFDuZtq6SLOjFouVE-76">
          <mxGeometry y="60" width="130" height="40" as="geometry" />
        </mxCell>
        <mxCell id="VSAAFDuZtq6SLOjFouVE-80" value="«DAO»&#xa;CurtidaDAO&#xa;" style="swimlane;fontStyle=0;align=center;verticalAlign=top;childLayout=stackLayout;horizontal=1;startSize=35;horizontalStack=0;resizeParent=1;resizeLast=0;collapsible=1;marginBottom=0;rounded=0;shadow=0;strokeWidth=1;" vertex="1" parent="1">
          <mxGeometry x="385" y="650" width="160" height="70" as="geometry">
            <mxRectangle x="340" y="380" width="170" height="26" as="alternateBounds" />
          </mxGeometry>
        </mxCell>
        <mxCell id="VSAAFDuZtq6SLOjFouVE-81" value="" style="line;html=1;strokeWidth=1;align=left;verticalAlign=middle;spacingTop=-1;spacingLeft=3;spacingRight=3;rotatable=0;labelPosition=right;points=[];portConstraint=eastwest;" vertex="1" parent="VSAAFDuZtq6SLOjFouVE-80">
          <mxGeometry y="35" width="160" height="8" as="geometry" />
        </mxCell>
        <mxCell id="VSAAFDuZtq6SLOjFouVE-82" value="+ criar():&#xa;" style="text;align=left;verticalAlign=top;spacingLeft=4;spacingRight=4;overflow=hidden;rotatable=0;points=[[0,0.5],[1,0.5]];portConstraint=eastwest;" vertex="1" parent="VSAAFDuZtq6SLOjFouVE-80">
          <mxGeometry y="43" width="160" height="27" as="geometry" />
        </mxCell>
        <mxCell id="VSAAFDuZtq6SLOjFouVE-83" value="0..n" style="text;html=1;align=center;verticalAlign=middle;whiteSpace=wrap;rounded=0;" vertex="1" parent="1">
          <mxGeometry x="340" y="393" width="60" height="30" as="geometry" />
        </mxCell>
        <mxCell id="VSAAFDuZtq6SLOjFouVE-84" value="1" style="text;html=1;align=center;verticalAlign=middle;whiteSpace=wrap;rounded=0;" vertex="1" parent="1">
          <mxGeometry x="260" y="393" width="60" height="30" as="geometry" />
        </mxCell>
        <mxCell id="VSAAFDuZtq6SLOjFouVE-85" value="0..n" style="text;html=1;align=center;verticalAlign=middle;whiteSpace=wrap;rounded=0;" vertex="1" parent="1">
          <mxGeometry x="520" y="393" width="60" height="30" as="geometry" />
        </mxCell>
        <mxCell id="VSAAFDuZtq6SLOjFouVE-86" value="1" style="text;html=1;align=center;verticalAlign=middle;whiteSpace=wrap;rounded=0;" vertex="1" parent="1">
          <mxGeometry x="580" y="393" width="60" height="30" as="geometry" />
        </mxCell>
      </root>
    </mxGraphModel>
  </diagram>
</mxfile>
